<svg width="55" height="70" viewBox="0 0 55 70" fill="none"
    xmlns="http://www.w3.org/2000/svg">
    <path d="M46.0375 13.6376L46.2521 13.423L46.2521 2.39073e-06L27.5361 18.7159L27.3215 18.9305L27.107 18.7159L8.39102 7.35768e-07L8.39102 13.423L8.6056 13.6376L27.2977 32.3297L46.0375 13.6376ZM9.89307 12.827L9.89307 3.55245L27.3454 21.0048L44.7977 3.55245L44.7977 12.827L27.3454 30.2793L9.89307 12.827Z" fill="#67E78B"/>
    <path d="M48.7071 48.6374L47.6819 47.6122L27.3447 67.9494L7.00754 47.6122L5.98233 48.6374L27.3447 69.9998L48.7071 48.6374Z" fill="#67E78B"/>
    <path d="M14.3524 1.20995e-06L13.3034 1.0252L27.1317 14.8535L27.3463 15.0681L27.5608 14.8535L41.3653 1.02521L40.3401 2.34591e-06L27.5608 12.7793L27.3463 12.9939L27.1317 12.7793L14.3524 1.20995e-06Z" fill="#67E78B"/>
    <path d="M7.00754 15.3064L5.98233 16.3316L27.1302 37.5032L27.3447 37.694L27.5593 37.5032L48.7071 16.3316L47.6819 15.3064L27.5593 35.429L27.3447 35.6435L27.1302 35.429L7.00754 15.3064Z" fill="#67E78B"/>
    <path d="M27.3467 66.1139L27.5613 65.8993L49.2098 44.2508L49.2098 39.9592L54.6935 34.4756L54.6935 14.8775L27.5613 42.0096L27.3467 42.2242L27.1322 42.0096L3.0598e-06 14.8775L2.20314e-06 34.4756L5.48365 39.9592L5.48365 44.2508L27.1322 65.8993L27.3467 66.1139ZM27.1322 53.573L5.48365 31.9245L5.48365 37.9088L1.45436 33.8795L1.45436 18.4299L27.1083 44.0839L27.3229 44.2985L27.5375 44.0839L53.1914 18.4299L53.1914 33.8795L49.1621 37.9088L49.1621 31.9245L27.5136 53.573L27.299 53.7876L27.1322 53.573Z" fill="#67E78B"/>
</svg>
