<svg width="220" height="50" viewBox="0 0 220 50" fill="none" xmlns="http://www.w3.org/2000/svg">
<g opacity="0.1">
<path d="M220 42.6635V13.3971L209.73 4.46574H129.657L123.8 0H12.1152L0 12.1212V39.3142L5.7768 45.7735H89.9417L97.4836 50H213.902L220 42.6635Z" fill="#2F2F2F"/>
</g>
<path d="M126.482 0L130.733 2.79107H208.049L205.403 0H126.482Z" fill="#67E78B"/>
<path d="M123.594 0.637949L129.289 5.02391L129.449 5.10369H129.61H209.413L219.278 13.7161V42.4242L213.503 49.3621H97.6083L90.1494 45.2153L89.9889 45.1356H89.8285H6.0153L0.561426 38.9952V12.2807L12.3514 0.558223H123.594M123.755 0H12.1108L0 12.1212V39.3142L5.77469 45.7735H89.9087L97.5281 50H213.824L219.919 42.6635V13.4769L209.653 4.46574H129.69L123.755 0Z" fill="#67E78B"/>
<path d="M18.6074 46.9697H89.7484L95.4429 50H21.575L18.6074 46.9697Z" fill="#67E78B"/>
<path d="M20.2913 50H17.4841L14.677 46.9697H17.4841L20.2913 50Z" fill="#67E78B"/>
<path d="M16.3617 50H13.6348L10.8276 46.9697H13.5546L16.3617 50Z" fill="#67E78B"/>
<path d="M6.01531 0H10.7473L0 10.6858V5.90113L6.01531 0Z" fill="#67E78B"/>
<path opacity="0.1" d="M219.679 19.1387L215.829 23.2057V47.1291L220 42.6634L219.679 19.1387Z" fill="#67E78B"/>
<path d="M219.358 35.8853L206.365 49.8406H213.824L219.919 42.6636L219.358 35.8853Z" fill="#67E78B"/>
<path opacity="0.1" d="M0 39.3142H56.1428L61.9977 45.5343H5.77469L0 39.3142Z" fill="#67E78B"/>
</svg>
