<svg width="40" height="40" viewBox="0 0 40 40" fill="none" xmlns="http://www.w3.org/2000/svg">
<path d="M27.1582 31.8457H12.8419C11.5991 31.8443 10.4076 31.3501 9.52882 30.4713C8.65003 29.5925 8.15574 28.401 8.15442 27.1582V12.8419C8.15574 11.5991 8.65003 10.4076 9.52882 9.52882C10.4076 8.65003 11.5991 8.15574 12.8419 8.15442H27.1582C28.401 8.15574 29.5925 8.65003 30.4713 9.52882C31.3501 10.4076 31.8443 11.5991 31.8457 12.8419V27.1582C31.8443 28.401 31.3501 29.5925 30.4713 30.4713C29.5925 31.3501 28.401 31.8443 27.1582 31.8457ZM12.8419 10.0294C12.0963 10.0302 11.3814 10.3268 10.8541 10.8541C10.3268 11.3814 10.0302 12.0963 10.0294 12.8419V27.1582C10.0302 27.9038 10.3268 28.6187 10.8541 29.146C11.3814 29.6733 12.0963 29.9698 12.8419 29.9707H27.1582C27.9038 29.9698 28.6187 29.6733 29.146 29.146C29.6733 28.6187 29.9698 27.9038 29.9707 27.1582V12.8419C29.9698 12.0963 29.6733 11.3814 29.146 10.8541C28.6187 10.3268 27.9038 10.0302 27.1582 10.0294H12.8419Z" fill="white"/>
<path d="M24.4194 25.3569C24.2963 25.357 24.1744 25.3327 24.0607 25.2855C23.947 25.2383 23.8438 25.1691 23.7569 25.0819L14.9175 16.2438C14.7498 16.0664 14.6579 15.8306 14.6613 15.5865C14.6648 15.3424 14.7633 15.1092 14.936 14.9367C15.1087 14.7641 15.3418 14.6657 15.5859 14.6623C15.83 14.659 16.0658 14.751 16.2431 14.9188L25.0825 23.7563C25.2135 23.8874 25.3026 24.0544 25.3387 24.2361C25.3748 24.4179 25.3563 24.6062 25.2854 24.7774C25.2145 24.9487 25.0944 25.095 24.9404 25.198C24.7864 25.3011 24.6053 25.3561 24.42 25.3563L24.4194 25.3569Z" fill="white"/>
<path d="M15.5807 25.3569C15.3954 25.3567 15.2143 25.3017 15.0603 25.1986C14.9063 25.0956 14.7862 24.9492 14.7154 24.778C14.6445 24.6068 14.6259 24.4185 14.662 24.2367C14.6981 24.055 14.7873 23.888 14.9182 23.7569L23.7563 14.9175C23.9337 14.7498 24.1696 14.6579 24.4137 14.6613C24.6578 14.6648 24.8909 14.7633 25.0635 14.936C25.2361 15.1087 25.3345 15.3418 25.3378 15.5859C25.3412 15.83 25.2491 16.0658 25.0813 16.2431L16.2438 25.0825C16.157 25.1697 16.0537 25.2389 15.94 25.2861C15.8263 25.3333 15.7044 25.3576 15.5813 25.3575L15.5807 25.3569Z" fill="white"/>
</svg>
