<svg width="145" height="65" viewBox="0 0 145 65" fill="none"
    xmlns="http://www.w3.org/2000/svg">
    <path opacity="0.15" d="M140.85 42.85C135.85 37.85 127.85 37.85 122.85 42.85C117.85 47.85 117.85 55.85 122.85 60.85C127.85 65.85 135.85 65.85 140.85 60.85C145.85 55.85 145.85 47.75 140.85 42.85Z" fill="#67E78B"/>
    <path opacity="0.35" d="M131.849 61.55C126.492 61.55 122.149 57.2071 122.149 51.85C122.149 46.4928 126.492 42.15 131.849 42.15C137.206 42.15 141.549 46.4928 141.549 51.85C141.549 57.2072 137.206 61.55 131.849 61.55Z" fill="#67E78B"/>
    <path d="M135.85 47.85C133.65 45.65 130.15 45.65 127.95 47.85C125.75 50.05 125.75 53.55 127.95 55.75C130.15 57.95 133.65 57.95 135.85 55.75C138.05 53.55 138.05 50.05 135.85 47.85Z" fill="#67E78B"/>
    <path opacity="0.15" d="M21.7504 3.75001C16.7504 -1.24999 8.75037 -1.24999 3.75037 3.75001C-1.24963 8.75001 -1.24963 16.75 3.75037 21.75C8.75037 26.75 16.7504 26.75 21.7504 21.75C26.7504 16.85 26.7504 8.75001 21.7504 3.75001Z" fill="#67E78B"/>
    <path opacity="0.35" d="M19.6504 5.85001C15.8504 2.05001 9.65032 2.05001 5.85032 5.85001C2.05032 9.65001 2.05032 15.85 5.85032 19.65C9.65032 23.45 15.8504 23.45 19.6504 19.65C23.4504 15.85 23.4504 9.65001 19.6504 5.85001Z" fill="#67E78B"/>
    <path d="M16.7508 8.85002C14.5508 6.65002 11.0507 6.65002 8.85074 8.85002C6.65074 11.05 6.65074 14.55 8.85074 16.75C11.0507 18.95 14.5508 18.95 16.7508 16.75C18.9508 14.55 18.9508 11.05 16.7508 8.85002Z" fill="#67E78B"/>
    <path d="M14.6492 12.55L89.8491 11.25L131.549 52.85" stroke="#67E78B" stroke-miterlimit="10"/>
</svg>