<svg width="26" height="94" viewBox="0 0 26 94" fill="none"
    xmlns="http://www.w3.org/2000/svg">
    <path opacity="0.15" d="M3.75 21.75C8.75 26.75 16.75 26.75 21.75 21.75C26.75 16.75 26.75 8.75001 21.75 3.75001C16.75 -1.24999 8.75 -1.24999 3.75 3.75001C-1.25 8.75001 -1.25 16.85 3.75 21.75Z" fill="#67E78B"/>
    <path opacity="0.35" d="M12.7509 3.05003C18.108 3.05003 22.4508 7.39285 22.4508 12.75C22.4508 18.1072 18.108 22.45 12.7509 22.45C7.39369 22.45 3.05078 18.1072 3.05078 12.75C3.05078 7.39285 7.39369 3.05003 12.7509 3.05003Z" fill="#67E78B"/>
    <path d="M8.74961 16.75C10.9496 18.95 14.4496 18.95 16.6496 16.75C18.8496 14.55 18.8496 11.05 16.6496 8.85004C14.4496 6.65004 10.9496 6.65004 8.74961 8.85004C6.54961 11.05 6.54961 14.55 8.74961 16.75Z" fill="#67E78B"/>
    <path opacity="0.15" d="M3.75 89.7498C8.75 94.7498 16.75 94.7498 21.75 89.7498C26.75 84.7498 26.75 76.7498 21.75 71.7498C16.75 66.7498 8.75 66.7498 3.75 71.7498C-1.25 76.6498 -1.25 84.7498 3.75 89.7498Z" fill="#67E78B"/>
    <path opacity="0.35" d="M5.85 87.6498C9.65 91.4498 15.85 91.4498 19.65 87.6498C23.45 83.8498 23.45 77.6498 19.6501 73.8498C15.8501 70.0498 9.65 70.0498 5.85 73.8498C2.05 77.6498 2.05 83.8498 5.85 87.6498Z" fill="#67E78B"/>
    <path d="M8.74961 84.6498C10.9496 86.8498 14.4496 86.8498 16.6496 84.6498C18.8496 82.4498 18.8496 78.9498 16.6496 76.7498C14.4496 74.5498 10.9496 74.5498 8.74961 76.7498C6.54961 78.9498 6.54961 82.4498 8.74961 84.6498Z" fill="#67E78B"/>
    <path d="M13.0508 76.9998L13.0508 11.75" stroke="#67E78B" stroke-miterlimit="10"/>
</svg>
