<svg width="32" height="32" viewBox="0 0 32 32" fill="none" xmlns="http://www.w3.org/2000/svg">
<g clip-path="url(#clip0_2442_7604)">
<path d="M22.9764 8.44089C22.6552 8.44089 22.3938 8.70231 22.3938 9.02355C22.3938 9.34478 22.6552 9.6062 22.9764 9.6062C23.2977 9.6062 23.5591 9.34483 23.5591 9.02355C23.5591 8.70226 23.2977 8.44089 22.9764 8.44089ZM16 10.8346C13.1518 10.8346 10.8345 13.1518 10.8345 16C10.8345 18.8482 13.1518 21.1655 16 21.1655C18.8482 21.1655 21.1655 18.8483 21.1655 16C21.1655 13.1518 18.8482 10.8346 16 10.8346Z" fill="white" fill-opacity="0.4"/>
<path d="M21.4208 4H10.5792C6.95144 4 4 6.95144 4 10.5793V21.4208C4 25.0486 6.95144 28 10.5792 28H21.4208C25.0486 28 28 25.0486 28 21.4208V10.5793C28 6.95144 25.0486 4 21.4208 4ZM16 22.5828C12.3702 22.5828 9.4173 19.6298 9.4173 16C9.4173 12.3702 12.3703 9.41735 16 9.41735C19.6297 9.41735 22.5828 12.3703 22.5828 16C22.5828 19.6297 19.6297 22.5828 16 22.5828ZM22.9765 11.0236C21.8737 11.0236 20.9765 10.1264 20.9765 9.0236C20.9765 7.92081 21.8737 7.02358 22.9765 7.02358C24.0792 7.02358 24.9764 7.92077 24.9764 9.02355C24.9764 10.1263 24.0792 11.0236 22.9765 11.0236Z" fill="white" fill-opacity="0.4"/>
</g>
<defs>
<clipPath id="clip0_2442_7604">
<rect width="24" height="24" fill="white" transform="translate(4 4)"/>
</clipPath>
</defs>
</svg>
